{
  "accessors": [
    {
      "bufferView": 3,
      "componentType": 5126,
      "count": 4312,
      "max": [
        2.305382490158081,
        8.636177062988281,
        0.6627191305160522
      ],
      "min": [
        -2.305382490158081,
        0.00812673568725586,
        -3.0963776111602783
      ],
      "type": "VEC3"
    },
    {
      "bufferView": 3,
      "byteOffset": 51744,
      "componentType": 5126,
      "count": 4312,
      "max": [
        1.0,
        0.9999630451202393,
        0.9887414574623108
      ],
      "min": [
        -1.0,
        -0.998693585395813,
        -1.0
      ],
      "type": "VEC3"
    },
    {
      "bufferView": 2,
      "componentType": 5126,
      "count": 4312,
      "max": [
        1.0,
        1.0
      ],
      "min": [
        0.0,
        0.0
      ],
      "type": "VEC2"
    },
    {
      "bufferView": 1,
      "componentType": 5125,
      "count": 16746,
      "type": "SCALAR"
    },
    {
      "bufferView": 5,
      "componentType": 5126,
      "count": 36,
      "max": [
        1.0,
        0.9575104117393494,
        0.9553396701812744,
        0.0,
        0.7933428883552551,
        1.0,
        0.9176155924797058,
        0.0,
        0.8463928699493408,
        0.22436165809631348,
        1.0,
        0.0,
        3.3667850494384766,
        1.0081475973129272,
        3.3559951782226563,
        1.0
      ],
      "min": [
        -0.2113400548696518,
        -0.9575102925300598,
        -0.9998611807823181,
        0.0,
        -0.989863395690918,
        -0.9998612999916077,
        -0.9628180861473083,
        0.0,
        -1.0000041723251343,
        -0.9594240188598633,
        -0.9512130618095398,
        0.0,
        -3.0814461708068848,
        -1.778552532196045,
        -3.3733229637145996,
        1.0
      ],
      "type": "MAT4"
    },
    {
      "bufferView": 0,
      "componentType": 5123,
      "count": 4312,
      "type": "VEC4"
    },
    {
      "bufferView": 4,
      "componentType": 5126,
      "count": 4312,
      "max": [
        1.0,
        0.49258139729499817,
        0.2875445783138275,
        0.10267836600542068
      ],
      "min": [
        0.3958452045917511,
        0.0,
        0.0,
        0.0
      ],
      "type": "VEC4"
    }
  ],
  "asset": {
    "extras": {
      "author": "husk3y (https://sketchfab.com/husk3ys)",
      "license": "CC-BY-4.0 (http://creativecommons.org/licenses/by/4.0/)",
      "source": "https://sketchfab.com/3d-models/banana-cat-e770c6fa7c644aa1b47dadedd6c57ecc",
      "title": "Banana Cat"
    },
    "generator": "Sketchfab-15.27.0",
    "version": "2.0"
  },
  "bufferViews": [
    {
      "buffer": 0,
      "byteLength": 34496,
      "byteStride": 8,
      "name": "shortBufferViews",
      "target": 34962
    },
    {
      "buffer": 0,
      "byteLength": 66984,
      "byteOffset": 34496,
      "name": "floatBufferViews",
      "target": 34963
    },
    {
      "buffer": 0,
      "byteLength": 34496,
      "byteOffset": 101480,
      "byteStride": 8,
      "name": "floatBufferViews",
      "target": 34962
    },
    {
      "buffer": 0,
      "byteLength": 103488,
      "byteOffset": 135976,
      "byteStride": 12,
      "name": "floatBufferViews",
      "target": 34962
    },
    {
      "buffer": 0,
      "byteLength": 68992,
      "byteOffset": 239464,
      "byteStride": 16,
      "name": "floatBufferViews",
      "target": 34962
    },
    {
      "buffer": 0,
      "byteLength": 2304,
      "byteOffset": 308456,
      "name": "floatBufferViews"
    }
  ],
  "buffers": [
    {
      "byteLength": 310760,
      "uri": "scene.bin"
    }
  ],
  "images": [
    {
      "uri": "textures/Material_baseColor.png"
    }
  ],
  "materials": [
    {
      "doubleSided": true,
      "name": "Material",
      "pbrMetallicRoughness": {
        "baseColorTexture": {
          "index": 0
        },
        "metallicFactor": 0.0,
        "roughnessFactor": 0.459091
      }
    }
  ],
  "meshes": [
    {
      "name": "Object_0",
      "primitives": [
        {
          "attributes": {
            "JOINTS_0": 5,
            "NORMAL": 1,
            "POSITION": 0,
            "TEXCOORD_0": 2,
            "WEIGHTS_0": 6
          },
          "indices": 3,
          "material": 0,
          "mode": 4
        }
      ]
    }
  ],
  "nodes": [
    {
      "children": [
        1
      ],
      "matrix": [
        1.0,
        0.0,
        0.0,
        0.0,
        0.0,
        2.220446049250313e-16,
        -1.0,
        0.0,
        0.0,
        1.0,
        2.220446049250313e-16,
        0.0,
        0.0,
        0.0,
        0.0,
        1.0
      ],
      "name": "Sketchfab_model"
    },
    {
      "children": [
        2
      ],
      "name": "root"
    },
    {
      "children": [
        3
      ],
      "matrix": [
        1.0,
        0.0,
        0.0,
        0.0,
        0.0,
        2.220446049250313e-16,
        1.0,
        0.0,
        0.0,
        -1.0,
        2.220446049250313e-16,
        0.0,
        0.0,
        0.0,
        0.0,
        1.0
      ],
      "name": "GLTF_SceneRootNode"
    },
    {
      "children": [
        4
      ],
      "matrix": [
        1.0,
        0.0,
        0.0,
        0.0,
        0.0,
        1.0,
        0.0,
        0.0,
        0.0,
        0.0,
        1.0,
        0.0,
        0.0,
        1.2133452892303467,
        -1.1409900188446045,
        1.0
      ],
      "name": "Armature_36"
    },
    {
      "children": [
        5,
        7,
        6
      ],
      "name": "GLTF_created_0"
    },
    {
      "children": [
        8
      ],
      "name": "GLTF_created_0_rootJoint"
    },
    {
      "name": "Cat_35"
    },
    {
      "mesh": 0,
      "name": "Object_7",
      "skin": 0
    },
    {
      "children": [
        9,
        23,
        37,
        40
      ],
      "name": "Bone_34",
      "rotation": [
        0.0029824119992554188,
        1.1920875664372943e-07,
        3.555336580696178e-10,
        0.9999955892562866
      ],
      "scale": [
        1.0,
        0.9999999403953552,
        0.9999999403953552
      ]
    },
    {
      "children": [
        10
      ],
      "name": "Bone.002_13",
      "rotation": [
        0.5377638339996338,
        0.45545491576194763,
        -0.5991716384887695,
        0.3799530565738678
      ],
      "scale": [
        0.9999998807907104,
        0.9999998211860657,
        1.0
      ],
      "translation": [
        1.2013064622879028,
        1.8262079954147339,
        0.27172985672950745
      ]
    },
    {
      "children": [
        11,
        14,
        17,
        20
      ],
      "name": "Bone.003_12",
      "rotation": [
        -0.003407824784517288,
        -0.0017182163428515196,
        -0.006842701230198145,
        0.9999693036079407
      ],
      "scale": [
        1.0,
        1.0,
        1.0000001192092896
      ],
      "translation": [
        -1.1632647733961221e-08,
        0.595798671245575,
        5.414168313677692e-08
      ]
    },
    {
      "children": [
        12
      ],
      "name": "Bone.004_2",
      "rotation": [
        -0.45143622159957886,
        -0.7145748138427734,
        -0.2895631194114685,
        0.4491563141345978
      ],
      "scale": [
        1.0000001192092896,
        1.000000238418579,
        1.000000238418579
      ],
      "translation": [
        0.14016522467136383,
        0.10420911014080048,
        -0.011869771406054497
      ]
    },
    {
      "children": [
        13
      ],
      "name": "Bone.005_1",
      "rotation": [
        0.26251447200775146,
        0.062398623675107956,
        -0.05510612949728966,
        0.9613302946090698
      ],
      "scale": [
        0.9999998807907104,
        0.9999999403953552,
        1.0
      ],
      "translation": [
        -3.263295411670697e-08,
        0.11084067821502686,
        -2.190784726963102e-07
      ]
    },
    {
      "name": "Bone.006_0",
      "rotation": [
        0.16355657577514648,
        0.03444480150938034,
        -0.08409816026687622,
        0.9823392629623413
      ],
      "scale": [
        1.0,
        0.9999999403953552,
        1.0
      ],
      "translation": [
        1.6380634804136207e-07,
        0.1090334951877594,
        -9.330303640808779e-08
      ]
    },
    {
      "children": [
        15
      ],
      "name": "Bone.007_5",
      "rotation": [
        0.04560469090938568,
        0.00452447310090065,
        0.012242398224771023,
        0.998874306678772
      ],
      "scale": [
        0.9999998807907104,
        0.9999999403953552,
        1.0
      ],
      "translation": [
        0.10628630220890045,
        0.21427282691001892,
        -0.014632945880293846
      ]
    },
    {
      "children": [
        16
      ],
      "name": "Bone.008_4",
      "rotation": [
        -0.008531860075891018,
        -0.0030791661702096462,
        -0.017093846574425697,
        0.9998127818107605
      ],
      "scale": [
        1.0,
        0.9999997615814209,
        0.9999998807907104
      ],
      "translation": [
        -1.2574313146274108e-08,
        0.11035506427288055,
        2.5581255158613203e-07
      ]
    },
    {
      "name": "Bone.009_3",
      "rotation": [
        0.005124520976096392,
        0.006170511245727539,
        0.007390225771814585,
        0.9999405741691589
      ],
      "scale": [
        0.9999999403953552,
        1.0000001192092896,
        1.0
      ],
      "translation": [
        -2.7942441249706462e-08,
        0.10295543074607849,
        8.344666291293379e-09
      ]
    },
    {
      "children": [
        18
      ],
      "name": "Bone.010_8",
      "rotation": [
        0.0446116141974926,
        0.002713120775297284,
        0.05152928829193115,
        0.9976708889007568
      ],
      "scale": [
        1.0,
        0.9999999403953552,
        1.0
      ],
      "translation": [
        -0.02963276207447052,
        0.19196848571300507,
        -0.013754749670624733
      ]
    },
    {
      "children": [
        19
      ],
      "name": "Bone.011_7",
      "rotation": [
        -0.0063213021494448185,
        0.008549750782549381,
        -0.027661459520459175,
        0.9995608925819397
      ],
      "scale": [
        1.0000001192092896,
        1.0000001192092896,
        0.9999998807907104
      ],
      "translation": [
        1.2430399820573257e-08,
        0.11035540699958801,
        2.9670488288502384e-07
      ]
    },
    {
      "name": "Bone.012_6",
      "rotation": [
        -0.01491561345756054,
        0.006278783082962036,
        0.016113797202706337,
        0.9997391700744629
      ],
      "scale": [
        1.0000001192092896,
        1.0000001192092896,
        1.0
      ],
      "translation": [
        4.572009437708857e-09,
        0.10336706042289734,
        -2.634394036249432e-07
      ]
    },
    {
      "children": [
        21
      ],
      "name": "Bone.013_11",
      "rotation": [
        -0.012582371011376381,
        -0.014359182678163052,
        0.18878212571144104,
        0.9818333983421326
      ],
      "scale": [
        1.0,
        0.9999998807907104,
        0.9999998807907104
      ],
      "translation": [
        -0.1314207911491394,
        0.12189182639122009,
        0.0029999930411577225
      ]
    },
    {
      "children": [
        22
      ],
      "name": "Bone.014_10",
      "rotation": [
        0.026738112792372704,
        0.04447352513670921,
        -0.09684097766876221,
        0.9939461946487427
      ],
      "scale": [
        1.0,
        1.0,
        1.0000001192092896
      ],
      "translation": [
        1.4901161193847656e-08,
        0.10840336978435516,
        2.0209699869155884e-07
      ]
    },
    {
      "name": "Bone.015_9",
      "rotation": [
        -0.015188995748758316,
        0.004329249728471041,
        0.013201320543885231,
        0.9997881650924683
      ],
      "scale": [
        0.9999999403953552,
        1.0,
        1.0
      ],
      "translation": [
        -3.8081140019130544e-08,
        0.10107412189245224,
        -2.7497844712343067e-07
      ]
    },
    {
      "children": [
        24
      ],
      "name": "Bone.016_27",
      "rotation": [
        -0.32849860191345215,
        0.16174229979515076,
        0.7350410223007202,
        0.5706512331962585
      ],
      "scale": [
        0.9999998807907104,
        0.9999999403953552,
        1.0000001192092896
      ],
      "translation": [
        -1.1861839294433594,
        1.8262264728546143,
        0.27483585476875305
      ]
    },
    {
      "children": [
        25,
        28,
        31,
        34
      ],
      "name": "Bone.017_26",
      "rotation": [
        -0.0031434011179953814,
        -0.04596583545207977,
        -0.006968118250370026,
        0.9989137649536133
      ],
      "scale": [
        0.9999999403953552,
        1.0,
        0.9999998807907104
      ],
      "translation": [
        1.4385832969310286e-08,
        0.595798134803772,
        -1.884989231371037e-08
      ]
    },
    {
      "children": [
        26
      ],
      "name": "Bone.018_16",
      "rotation": [
        0.20885832607746124,
        0.822157621383667,
        -0.4939834773540497,
        0.19082820415496826
      ],
      "scale": [
        0.9999998807907104,
        0.9999998807907104,
        0.9999998211860657
      ],
      "translation": [
        0.09293598681688309,
        0.10420875996351242,
        -0.10559403151273727
      ]
    },
    {
      "children": [
        27
      ],
      "name": "Bone.019_15",
      "rotation": [
        -0.26618245244026184,
        0.11481103301048279,
        -0.033128172159194946,
        0.956487238407135
      ],
      "scale": [
        1.0000001192092896,
        1.0000001192092896,
        1.0000001192092896
      ],
      "translation": [
        -9.220370600360184e-08,
        0.11084090173244476,
        -1.0848097531379608e-07
      ]
    },
    {
      "name": "Bone.020_14",
      "rotation": [
        -0.10001777857542038,
        0.3688136041164398,
        -0.15433667600154877,
        0.9111274480819702
      ],
      "scale": [
        0.9999998807907104,
        0.9999999403953552,
        1.0
      ],
      "translation": [
        3.175397012000758e-08,
        0.10903391242027283,
        -6.461196022655713e-09
      ]
    },
    {
      "children": [
        29
      ],
      "name": "Bone.021_19",
      "rotation": [
        -0.023942850530147552,
        0.15150867402553558,
        0.04069853574037552,
        0.9873274564743042
      ],
      "scale": [
        0.9999998807907104,
        0.9999998807907104,
        1.0
      ],
      "translation": [
        0.07499956339597702,
        0.2142721712589264,
        -0.07672012597322464
      ]
    },
    {
      "children": [
        30
      ],
      "name": "Bone.022_18",
      "rotation": [
        -0.004757909569889307,
        -0.09142263233661652,
        -0.01850283518433571,
        0.9956289529800415
      ],
      "scale": [
        1.0,
        1.0000001192092896,
        1.0
      ],
      "translation": [
        -3.725290298461914e-09,
        0.1103551909327507,
        1.1548399925231934e-07
      ]
    },
    {
      "name": "Bone.023_17",
      "rotation": [
        0.0013424783246591687,
        0.046934232115745544,
        0.00889239925891161,
        0.9988574981689453
      ],
      "scale": [
        0.9999999403953552,
        0.9999997615814209,
        0.9999999403953552
      ],
      "translation": [
        2.1155747731427255e-07,
        0.1029554158449173,
        1.0100356462316995e-07
      ]
    },
    {
      "children": [
        32
      ],
      "name": "Bone.024_22",
      "rotation": [
        -0.008066216483712196,
        0.3288450837135315,
        0.0676785558462143,
        0.9419211745262146
      ],
      "scale": [
        0.9999998807907104,
        0.9999997615814209,
        0.9999998211860657
      ],
      "translation": [
        -0.006575742270797491,
        0.19196784496307373,
        0.032000832259655
      ]
    },
    {
      "children": [
        33
      ],
      "name": "Bone.025_21",
      "rotation": [
        -0.004345118999481201,
        -0.1301996111869812,
        -0.028039872646331787,
        0.991081714630127
      ],
      "translation": [
        2.911222729551355e-08,
        0.11035531759262085,
        -2.2739901339718926e-07
      ]
    },
    {
      "name": "Bone.026_20",
      "rotation": [
        0.020210901275277138,
        0.07165998220443726,
        0.008581846952438354,
        0.9971874356269836
      ],
      "translation": [
        1.1511136044362047e-08,
        0.10336752235889435,
        -1.9871281153882592e-07
      ]
    },
    {
      "children": [
        35
      ],
      "name": "Bone.027_25",
      "rotation": [
        -0.02369302324950695,
        0.8923388123512268,
        0.1877116560935974,
        0.4097980260848999
      ],
      "scale": [
        0.9999997615814209,
        0.9999995827674866,
        0.9999998211860657
      ],
      "translation": [
        -0.08060435205698013,
        0.12189116328954697,
        0.10384291410446167
      ]
    },
    {
      "children": [
        36
      ],
      "name": "Bone.028_24",
      "rotation": [
        0.05233133211731911,
        -0.5159618854522705,
        -0.08575858175754547,
        0.8506998419761658
      ],
      "scale": [
        1.0,
        1.0000001192092896,
        1.0
      ],
      "translation": [
        6.592021861706598e-08,
        0.10840366035699844,
        -4.552698484872053e-08
      ]
    },
    {
      "name": "Bone.029_23",
      "rotation": [
        0.008337347768247128,
        0.10675835609436035,
        0.018315719440579414,
        0.9940813183784485
      ],
      "scale": [
        0.9999999403953552,
        1.0,
        1.0000001192092896
      ],
      "translation": [
        -9.98447404754188e-08,
        0.10107412934303284,
        1.0704202679789887e-07
      ]
    },
    {
      "children": [
        38
      ],
      "name": "Bone.001_30",
      "rotation": [
        0.7048972249031067,
        0.05165321007370949,
        -0.7052174210548401,
        0.05585898831486702
      ],
      "scale": [
        0.9999959468841553,
        0.9999998807907104,
        1.0
      ],
      "translation": [
        0.7442864775657654,
        -0.07932925224304199,
        -0.012771730311214924
      ]
    },
    {
      "children": [
        39
      ],
      "name": "Bone.030_29",
      "rotation": [
        0.06771177798509598,
        2.4792710107135463e-08,
        8.698843600996042e-08,
        0.9977049231529236
      ],
      "scale": [
        1.0,
        0.9999999403953552,
        0.9999999403953552
      ],
      "translation": [
        1.735941168590216e-09,
        0.3569263815879822,
        2.1463755217610014e-08
      ]
    },
    {
      "name": "Bone.031_28",
      "rotation": [
        0.01725929044187069,
        -2.0419646418190496e-08,
        3.439716733666387e-09,
        0.9998510479927063
      ],
      "translation": [
        2.617142058625177e-10,
        0.4638817310333252,
        -6.128078666733927e-08
      ]
    },
    {
      "children": [
        41
      ],
      "name": "Bone.032_33",
      "rotation": [
        -0.705217719078064,
        0.05585852637887001,
        0.7048969864845276,
        0.0516531839966774
      ],
      "scale": [
        0.9999958276748657,
        0.9999997615814209,
        1.0
      ],
      "translation": [
        -0.7708500027656555,
        -0.07932925224304199,
        -0.012772087939083576
      ]
    },
    {
      "children": [
        42
      ],
      "name": "Bone.033_32",
      "rotation": [
        -0.06771177053451538,
        -1.7849096423105948e-07,
        7.407879820675589e-08,
        0.9977049231529236
      ],
      "scale": [
        1.0,
        1.0000001192092896,
        1.0000001192092896
      ],
      "translation": [
        -3.1553177848309133e-09,
        0.3569263815879822,
        -7.767997090013523e-08
      ]
    },
    {
      "name": "Bone.034_31",
      "rotation": [
        -0.01725929044187069,
        1.396160627109566e-07,
        2.8917979122411452e-09,
        0.9998510479927063
      ],
      "scale": [
        1.0,
        0.9999999403953552,
        0.9999999403953552
      ],
      "translation": [
        -1.5943324438438822e-09,
        0.46388179063796997,
        -5.780162481983098e-08
      ]
    }
  ],
  "samplers": [
    {
      "magFilter": 9729,
      "minFilter": 9987,
      "wrapS": 10497,
      "wrapT": 10497
    }
  ],
  "scene": 0,
  "scenes": [
    {
      "name": "Sketchfab_Scene",
      "nodes": [
        0
      ]
    }
  ],
  "skins": [
    {
      "inverseBindMatrices": 4,
      "joints": [
        5,
        8,
        9,
        10,
        11,
        12,
        13,
        14,
        15,
        16,
        17,
        18,
        19,
        20,
        21,
        22,
        23,
        24,
        25,
        26,
        27,
        28,
        29,
        30,
        31,
        32,
        33,
        34,
        35,
        36,
        37,
        38,
        39,
        40,
        41,
        42
      ],
      "skeleton": 5
    }
  ],
  "textures": [
    {
      "sampler": 0,
      "source": 0
    }
  ]
}
